<svg width="25" height="24" viewBox="0 0 25 24" fill="none" xmlns="http://www.w3.org/2000/svg">
<path d="M15.3089 19.5L12.3689 17.77L9.42891 19.5L10.2089 16.16L7.61891 13.92L11.0289 13.63L12.3689 10.5L13.7089 13.63L17.1189 13.92L14.5289 16.16M20.3689 2H4.36891V4L9.22891 7.64C7.53332 8.36359 6.13967 9.65057 5.28364 11.2833C4.42762 12.916 4.16177 14.7943 4.53105 16.6005C4.90032 18.4067 5.88207 20.0299 7.31024 21.1956C8.73842 22.3613 10.5254 22.998 12.3689 22.998C14.2124 22.998 15.9994 22.3613 17.4276 21.1956C18.8557 20.0299 19.8375 18.4067 20.2068 16.6005C20.576 14.7943 20.3102 12.916 19.4542 11.2833C18.5982 9.65057 17.2045 8.36359 15.5089 7.64L20.3689 4M18.3689 15C18.3694 16.1363 18.0473 17.2493 17.44 18.2097C16.8327 19.1701 15.9651 19.9382 14.9383 20.4248C13.9115 20.9114 12.7676 21.0964 11.6398 20.9584C10.5119 20.8203 9.44647 20.3648 8.56737 19.6448C7.68827 18.9249 7.03167 17.9701 6.67397 16.8916C6.31626 15.8131 6.27216 14.6552 6.5468 13.5526C6.82143 12.4501 7.40351 11.4481 8.2253 10.6634C9.0471 9.87869 10.0748 9.34347 11.1889 9.12C11.9675 8.96106 12.7703 8.96106 13.5489 9.12C14.9078 9.39258 16.1305 10.1272 17.0091 11.1991C17.8878 12.271 18.3683 13.614 18.3689 15ZM12.9989 7H11.7389L7.73891 4H17.0789L12.9989 7Z" fill="black"/>
</svg>
