<svg width="45" height="45" viewBox="0 0 45 45" fill="none" xmlns="http://www.w3.org/2000/svg">
<path d="M31.5 33.75C33.364 33.75 34.875 32.239 34.875 30.375C34.875 28.511 33.364 27 31.5 27C29.636 27 28.125 28.511 28.125 30.375C28.125 32.239 29.636 33.75 31.5 33.75Z" fill="black"/>
<path d="M36.225 20.25H32.625C31.275 14.175 25.425 10.125 19.35 11.475C14.85 12.375 11.25 15.75 10.35 20.25H8.775C6.525 20.25 4.5 22.275 4.5 24.525V27.45C4.5 29.025 5.85 30.375 7.425 30.375H8.1C8.1 27.45 10.575 24.975 13.5 24.975C16.425 24.975 18.9 27.45 18.9 30.375H26.1C26.1 27.45 28.575 24.975 31.5 24.975C34.425 24.975 36.9 27.45 36.9 30.375H37.575C39.15 30.375 40.5 29.025 40.5 27.45V24.75C40.5 22.275 38.475 20.25 36.225 20.25ZM13.95 20.25C15.075 15.975 19.575 13.725 23.625 14.85C26.1 15.525 28.125 17.55 29.025 20.25H13.95ZM13.5 27C11.7 27 10.125 28.575 10.125 30.375C10.125 32.175 11.7 33.75 13.5 33.75C15.3 33.75 16.875 32.175 16.875 30.375C16.875 28.575 15.3 27 13.5 27Z" fill="black"/>
</svg>
