<svg width="32" height="32" viewBox="0 0 32 32" fill="none" xmlns="http://www.w3.org/2000/svg">
<circle cx="15.9615" cy="15.9615" r="15.9615" fill="#FF3131"/>
<path d="M22.9643 12.4585C22.9603 12.3487 22.9161 12.2442 22.84 12.1649C22.7639 12.0856 22.6613 12.037 22.5518 12.0285C21.8209 11.9616 21.1236 11.6908 20.5393 11.2468C20.1055 10.918 19.7426 10.5049 19.4724 10.0323C19.2021 9.55976 19.0302 9.03748 18.9668 8.49683C18.9579 8.38718 18.9091 8.28458 18.8298 8.20842C18.7504 8.13226 18.6459 8.08782 18.5359 8.0835H16.7793C16.722 8.08349 16.6653 8.0949 16.6124 8.11707C16.5596 8.13924 16.5118 8.17172 16.4716 8.21262C16.4315 8.25351 16.4 8.30199 16.3788 8.35523C16.3576 8.40847 16.3473 8.46539 16.3484 8.52266V19.0143C16.3455 19.3309 16.278 19.6435 16.1501 19.9331C16.0222 20.2227 15.8366 20.4831 15.6046 20.6986C15.3727 20.914 15.0992 21.0799 14.801 21.186C14.5028 21.2922 14.186 21.3364 13.8701 21.316C13.5093 21.2958 13.158 21.1926 12.8436 21.0143C12.5293 20.8359 12.2604 20.5874 12.0579 20.2881C11.8555 19.9887 11.7249 19.6466 11.6764 19.2885C11.6279 18.9304 11.6628 18.5659 11.7784 18.2235C11.9543 17.7169 12.2973 17.2852 12.751 16.9993C13.2047 16.7133 13.7422 16.5902 14.2751 16.6502C14.334 16.6562 14.3935 16.6499 14.4498 16.6314C14.5061 16.613 14.5578 16.5829 14.6017 16.5431C14.6456 16.5033 14.6806 16.4547 14.7044 16.4005C14.7282 16.3463 14.7404 16.2877 14.7401 16.2285V14.1727C14.7401 14.1727 13.9934 14.1202 13.7384 14.1202C13.085 14.1171 12.4392 14.2599 11.8479 14.5382C11.2567 14.8164 10.735 15.2231 10.3209 15.7285C9.77056 16.3219 9.378 17.044 9.17926 17.8285C8.95014 18.7539 8.99691 19.7262 9.3138 20.6253C9.6307 21.5245 10.2039 22.3112 10.9626 22.8885C11.8306 23.5578 12.8965 23.9196 13.9926 23.9168C14.2432 23.9168 14.492 23.8993 14.7393 23.8643C15.783 23.7095 16.7502 23.2258 17.5001 22.4835C17.9583 22.034 18.3231 21.4982 18.5733 20.9071C18.8236 20.316 18.9545 19.6812 18.9584 19.0393V13.2585C19.9729 14.0416 21.1953 14.5091 22.4734 14.6027C22.5329 14.6062 22.5924 14.5975 22.6482 14.5769C22.7041 14.5563 22.7551 14.5244 22.798 14.4831C22.8409 14.4419 22.8748 14.3922 22.8975 14.3372C22.9203 14.2821 22.9314 14.223 22.9301 14.1635V12.4593L22.9643 12.4585Z" fill="#F8F8F8"/>
</svg>
